PathFileType	4	(X/Y/Z)	D:\TRACE\spotREDO_2-26-24\spot_justBody_Motion_3_4-platform.trc
DataRate	CameraRate	NumFrames	NumMarkers	Units	OrigDataRate	OrigDataStartFrame	OrigNumFrames
100.00	100.00	      60	5	mm	100.00	1751	      7000
Frame#	Time	Left_Front			Right_Front			Left_Aft			Right_Aft			Post			
		X1	Y1	Z1	X2	Y2	Z2	X3	Y3	Z3	X4	Y4	Z4	X5	Y5	Z5	

1751	17.500	-727.00958	-35.39223	-582.88562	687.91058	-22.48437	-498.41409	-798.87177	36.45698	633.72192	771.61774	43.02421	637.23926	-17.31184	569.76422	-1021.29681	
1752	17.510	-726.65839	-36.04289	-583.00128	688.33453	-23.02662	-498.91238	-798.40796	37.35659	633.41241	772.09222	44.07606	637.01160	-16.99497	568.26019	-1022.50189	
1753	17.520	-726.09528	-36.94674	-583.39618	688.94318	-23.93254	-498.76840	-797.78809	38.35653	633.36084	772.61121	45.17101	637.19073	-16.48796	566.67163	-1023.42328	
1754	17.530	-725.66290	-37.94695	-583.41821	689.35706	-24.74022	-498.92361	-797.43683	38.88482	632.98199	772.87909	46.02954	636.76910	-15.78118	565.13409	-1024.41943	
1755	17.540	-725.12146	-38.86929	-583.53693	689.69080	-25.54079	-499.00543	-796.90131	40.19611	632.58112	773.77026	47.18806	636.30304	-15.70186	563.67383	-1025.73816	
1756	17.550	-724.46722	-39.89251	-583.73755	690.34045	-26.18136	-499.27499	-796.49524	40.96002	632.21301	773.97797	48.16505	636.31500	-14.68968	562.07837	-1026.59192	
1757	17.560	-723.91040	-40.52211	-583.96619	690.79126	-27.00671	-499.59317	-795.90167	41.85921	632.05847	774.59839	48.68972	635.86383	-13.86710	560.48248	-1027.39575	
1758	17.570	-723.37274	-41.48145	-584.00580	691.53064	-27.92192	-499.63431	-795.48236	42.35813	631.80780	774.93903	49.76474	635.64001	-13.75830	558.83112	-1029.00964	
1759	17.580	-722.83527	-42.57363	-584.28601	692.09827	-28.53562	-499.90903	-794.82043	43.73487	631.56714	775.77222	50.47567	635.11200	-12.68767	557.12280	-1029.76758	
1760	17.590	-722.43408	-43.33521	-584.38513	692.62054	-29.51147	-500.04202	-794.25409	44.60210	631.11011	776.55133	51.37617	634.71954	-12.71399	555.54047	-1031.16614	
1761	17.600	-721.71808	-44.37787	-584.48505	693.34064	-30.31909	-500.26895	-793.48169	45.38805	630.73346	776.61621	52.52584	634.67926	-12.12365	554.32233	-1032.28064	
1762	17.610	-721.17474	-45.14806	-584.73004	693.83582	-30.93125	-500.40665	-792.88794	46.19741	630.53955	777.44873	53.63880	634.32727	-11.41645	552.46729	-1033.40991	
1763	17.620	-720.30914	-46.08440	-584.89423	694.30713	-31.65308	-500.64240	-792.22919	46.90010	630.32318	778.22595	54.34494	634.03198	-10.39383	550.82068	-1034.60181	
1764	17.630	-719.64893	-46.81828	-585.09216	695.12219	-32.53558	-500.70468	-791.70648	48.16620	629.83209	778.73920	55.17613	633.96600	-10.24146	549.38708	-1035.35352	
1765	17.640	-719.02869	-47.54455	-585.23712	695.93726	-33.14872	-501.21283	-791.03333	48.80942	629.58258	779.69952	56.21951	633.36279	-9.21802	548.04468	-1036.45166	
1766	17.650	-717.91907	-48.67734	-585.03674	696.61450	-33.94789	-501.00705	-790.19812	49.63654	629.28809	780.07953	57.02004	633.30609	-8.56571	546.53033	-1037.44031	
1767	17.660	-717.93152	-49.32782	-585.57556	697.24396	-34.64031	-501.32782	-789.43152	50.52895	628.90637	781.01984	58.25513	633.03918	-7.87946	544.83087	-1038.49500	
1768	17.670	-716.66302	-50.47387	-585.93768	698.09698	-35.29596	-501.34399	-788.80402	51.48278	628.72040	781.82269	58.91751	632.65918	-7.21061	543.43768	-1039.18372	
1769	17.680	-716.11011	-51.23489	-585.70551	698.99017	-36.35078	-501.52246	-788.14868	52.48610	628.49487	782.51569	59.66930	632.40570	-6.26818	542.05249	-1040.00769	
1770	17.690	-715.41644	-51.99540	-585.89148	699.40436	-36.89154	-501.74765	-787.22278	53.25159	628.15051	783.30377	60.51783	632.03674	-5.45234	540.52032	-1040.95898	
1771	17.700	-714.47711	-52.91330	-586.07477	700.33777	-37.75877	-501.84442	-786.43353	53.83159	627.65698	784.03351	61.45271	631.75000	-4.82829	538.93866	-1042.14465	
1772	17.710	-713.58826	-53.73465	-586.26355	701.21558	-38.18575	-502.10876	-785.60120	54.70167	627.60193	784.58350	62.14264	631.50964	-3.76169	537.54382	-1043.01550	
1773	17.720	-713.10333	-54.57413	-586.48346	702.04913	-38.99976	-502.25369	-785.01489	55.78756	627.32532	785.59735	63.17089	631.22638	-3.29497	536.13824	-1043.87109	
1774	17.730	-712.18848	-55.45222	-586.65765	702.80145	-39.86798	-502.22928	-784.10516	56.47125	626.99500	786.31207	63.89695	630.96069	-2.36220	534.63623	-1045.17981	
1775	17.740	-711.21606	-56.06001	-586.82294	703.69965	-40.34212	-502.43805	-783.27777	57.26637	626.78699	787.27374	64.57915	630.65167	-1.52617	533.41211	-1046.06970	
1776	17.750	-710.15485	-57.02271	-586.74585	704.84778	-41.19656	-502.45264	-782.47467	57.99889	626.24872	788.19489	65.49182	630.51038	-0.57682	531.98297	-1047.00330	
1777	17.760	-709.70026	-57.50240	-586.93158	705.24402	-41.51262	-502.80716	-781.53156	58.82212	626.07593	788.91016	66.19573	630.11188	0.46808	530.67902	-1047.85791	
1778	17.770	-708.55145	-58.44115	-587.09027	706.45605	-42.37768	-502.90952	-780.64001	59.26098	625.76373	790.09253	66.67471	629.86652	1.07709	529.33197	-1048.84937	
1779	17.780	-707.76318	-59.02174	-587.22247	707.24554	-42.71039	-502.96820	-779.71704	59.98442	625.86902	790.76874	67.55989	629.60492	2.04167	528.16528	-1049.50366	
1780	17.790	-706.62738	-59.69818	-587.16577	708.31458	-43.59286	-502.97577	-778.86072	61.01349	625.36957	791.66895	68.29163	629.23303	3.21689	526.88696	-1050.25867	
1781	17.800	-705.88989	-60.39073	-587.38135	709.12469	-44.03344	-503.37631	-777.52917	61.60071	625.16895	792.75623	69.14896	629.14813	4.11672	525.92841	-1050.79797	
1782	17.810	-704.72382	-61.16327	-587.49493	710.11237	-44.66021	-503.30615	-776.98755	62.21471	624.87543	793.59338	69.72327	628.92493	5.39082	524.43127	-1051.31104	
1783	17.820	-703.94653	-61.64275	-587.57184	711.12439	-45.13918	-503.51007	-776.05176	62.64005	624.55261	794.64136	70.12352	628.54730	6.02999	523.40918	-1052.08972	
1784	17.830	-702.74023	-62.57412	-587.66650	712.04352	-45.84743	-503.55508	-774.96246	63.44188	624.44598	795.65204	70.94204	628.39886	6.75048	522.38153	-1052.80029	
1785	17.840	-701.91003	-63.01017	-587.82849	712.83319	-46.11662	-503.71875	-774.02338	64.11490	624.31519	796.50134	71.47726	628.26160	7.84286	521.11493	-1053.58667	
1786	17.850	-700.98077	-63.37577	-587.80096	714.24762	-46.70102	-503.70386	-773.18695	64.64353	623.95648	797.53632	72.05664	627.89771	8.76563	520.35638	-1054.29041	
1787	17.860	-699.88147	-64.00336	-588.11908	715.02118	-47.01316	-503.86673	-771.89484	65.07854	623.88092	798.56000	72.77851	627.81915	9.88875	519.21893	-1054.93591	
1788	17.870	-698.72479	-64.71867	-588.16925	716.15729	-47.68722	-503.81995	-771.01373	65.67319	623.49384	799.83093	73.12092	627.65063	11.06361	518.46014	-1055.54578	
1789	17.880	-697.84216	-64.95081	-587.93353	717.48444	-48.20308	-503.82407	-770.01300	66.09386	623.39362	800.57092	73.28421	627.12891	12.21012	517.43433	-1056.13013	
1790	17.890	-697.05109	-65.44253	-588.06543	718.16718	-48.57067	-504.01358	-768.85583	66.44056	623.19824	801.82574	74.17003	627.31305	13.27081	516.72156	-1056.67859	
1791	17.900	-695.45740	-66.21272	-588.09662	719.32306	-48.85885	-504.16449	-767.90698	67.06709	623.12500	802.69305	74.63794	627.27325	14.32846	515.82971	-1057.07056	
1792	17.910	-694.53436	-66.42697	-588.06641	720.36243	-49.17710	-504.20377	-766.82123	67.44725	623.03424	803.60004	74.82495	626.94360	15.54634	515.00769	-1057.57849	
1793	17.920	-693.67096	-66.74648	-588.29242	721.41516	-49.51227	-504.47220	-765.70410	67.65829	622.85522	805.10126	75.53643	626.67188	16.50405	514.57538	-1057.75989	
1794	17.930	-692.48810	-67.07848	-588.41528	722.18335	-49.70202	-504.48163	-764.66730	68.15392	622.67957	805.80475	75.66685	626.60663	17.30427	513.86267	-1058.48865	
1795	17.940	-691.25702	-67.53272	-588.47253	723.69519	-50.10658	-504.36917	-763.65009	68.64369	622.49384	806.85864	75.95631	626.35156	18.48141	513.18341	-1058.67883	
1796	17.950	-690.38202	-67.85574	-588.51056	724.56244	-50.32999	-504.53351	-762.55060	69.17606	622.52325	808.23187	76.43929	626.27765	19.48619	512.78766	-1058.85413	
1797	17.960	-689.39539	-68.02794	-588.42529	725.50372	-50.79696	-504.64627	-761.39410	69.07663	622.29590	809.28540	76.76781	626.49011	21.04017	512.34137	-1059.12878	
1798	17.970	-688.18756	-68.29807	-588.61780	726.76239	-50.69106	-504.55054	-760.27844	69.36148	622.34198	810.35510	76.84763	626.36481	22.02127	511.74927	-1059.36121	
1799	17.980	-687.09918	-68.31597	-588.48389	727.95343	-50.84694	-504.62012	-759.35150	69.51839	622.33435	811.31183	77.11552	626.22882	22.64596	511.47424	-1059.87292	
1800	17.990	-685.98181	-68.87901	-588.74756	729.07562	-51.19870	-504.56717	-758.18567	69.76184	622.20624	812.52258	77.65276	626.20227	23.96830	511.15973	-1060.15527	
1801	18.000	-684.69769	-69.06234	-588.60596	730.14099	-51.28663	-504.52927	-756.93518	69.69540	622.06769	813.74451	77.42058	625.82794	24.97191	510.97174	-1060.04321	
1802	18.010	-684.01349	-68.85549	-588.60559	731.25433	-51.46579	-504.57941	-755.69037	68.90322	622.34656	814.55212	77.53781	625.83173	26.33207	510.63171	-1060.30786	
1803	18.020	-682.53241	-68.97846	-588.62537	732.13220	-51.42570	-504.65970	-754.23035	69.43351	622.17676	815.76807	77.59406	625.99335	27.54164	510.39548	-1060.63208	
1804	18.030	-681.43042	-69.03418	-588.65973	733.54138	-51.45585	-504.55972	-753.50958	69.43532	622.21582	816.99695	77.68236	625.99091	28.38626	510.50925	-1060.72998	
1805	18.040	-680.54480	-68.95254	-588.50055	734.54297	-51.22169	-504.81354	-752.38098	69.44092	622.22693	817.74872	77.70616	625.93903	29.53735	510.57141	-1060.56860	
1806	18.050	-679.30072	-68.93148	-588.50397	735.60626	-51.35298	-504.67883	-751.23865	69.50638	622.23749	819.24078	77.68064	625.98560	30.94192	510.41498	-1060.50525	
1807	18.060	-678.09503	-69.05174	-588.56665	736.79706	-51.41379	-504.73434	-750.20581	69.65872	622.20770	820.09436	77.60307	625.93439	31.90838	510.41809	-1060.33276	
1808	18.070	-677.09283	-68.93089	-588.63000	737.72174	-51.46870	-504.60550	-748.97974	69.49046	622.13129	821.31549	77.55546	625.92334	32.86756	510.91708	-1060.35376	
1809	18.080	-675.89105	-68.49994	-588.89081	739.12140	-51.01912	-504.64291	-747.99640	69.41583	622.21552	822.30841	77.43790	625.75586	34.01751	511.10498	-1059.96277	
1810	18.090	-674.83319	-68.71652	-588.71936	740.06561	-50.90785	-504.60303	-747.10736	69.23848	622.31848	823.30829	77.29122	626.06152	34.59790	511.20572	-1059.92712	
